<svg xmlns="http://www.w3.org/2000/svg" width="26.201" height="24.622" viewBox="0 0 26.201 24.622"><g transform="translate(14.228 -8.973)"><g transform="translate(-21.028 -0.427)"><g transform="translate(6.8 9.4)"><path d="M36.07,34.3H35.007a.607.607,0,0,0,0,1.214H36.07a.607.607,0,1,0,0-1.214Z" transform="translate(-26.021 -26.74)" fill="#fff"/><path d="M22.07,34.3H21.007a.607.607,0,0,0,0,1.214H22.07a.607.607,0,1,0,0-1.214Z" transform="translate(-16.271 -26.74)" fill="#fff"/><path d="M49.007,35.514H50.07a.607.607,0,1,0,0-1.214H49.007a.607.607,0,0,0,0,1.214Z" transform="translate(-35.77 -26.74)" fill="#fff"/><path d="M63.007,35.514H64.07a.607.607,0,1,0,0-1.214H63.007a.607.607,0,1,0,0,1.214Z" transform="translate(-45.52 -26.74)" fill="#fff"/><path d="M36.07,46H35.007a.607.607,0,0,0,0,1.214H36.07a.607.607,0,0,0,0-1.214Z" transform="translate(-26.021 -34.888)" fill="#fff"/><path d="M22.07,46H21.007a.607.607,0,1,0,0,1.214H22.07a.607.607,0,1,0,0-1.214Z" transform="translate(-16.271 -34.888)" fill="#fff"/><path d="M36.07,57.6H35.007a.607.607,0,0,0,0,1.214H36.07a.607.607,0,1,0,0-1.214Z" transform="translate(-26.021 -42.966)" fill="#fff"/><path d="M22.07,57.6H21.007a.607.607,0,1,0,0,1.214H22.07a.607.607,0,0,0,0-1.214Z" transform="translate(-16.271 -42.966)" fill="#fff"/><path d="M30.086,20.815V14.258a3.036,3.036,0,0,0-3.036-3.036h-.213V10.007a.607.607,0,0,0-1.214,0v1.184H22.952V10.007a.607.607,0,1,0-1.214,0v1.184H19.065V10.007a.607.607,0,1,0-1.214,0v1.184h-2.7V10.007a.607.607,0,1,0-1.214,0v1.184H11.263V10.007a.607.607,0,1,0-1.214,0v1.184H9.836A3.036,3.036,0,0,0,6.8,14.227V26.493a3.036,3.036,0,0,0,3.036,3.036h9.047a7.347,7.347,0,1,0,11.2-8.713Zm-20.25,7.5a1.822,1.822,0,0,1-1.822-1.822V14.258a1.822,1.822,0,0,1,1.822-1.822h.213v.88a.607.607,0,1,0,1.214,0v-.88h2.672v.88a.607.607,0,1,0,1.214,0v-.88h2.672v.88a.607.607,0,1,0,1.214,0v-.88h2.7v.88a.607.607,0,1,0,1.214,0v-.88h2.672v.88a.607.607,0,1,0,1.214,0v-.88h.213a1.822,1.822,0,0,1,1.822,1.822v5.8a7.347,7.347,0,0,0-7.408.577.607.607,0,0,0-.364-.121H20.037a.607.607,0,0,0,0,1.214h.182a7.347,7.347,0,0,0-1.761,6.588Zm15.818,4.524a6.133,6.133,0,1,1,6.163-6.163A6.133,6.133,0,0,1,25.654,32.838Z" transform="translate(-6.8 -9.4)" fill="#fff"/><path d="M69.231,57.534H67.014V54.407a.607.607,0,0,0-1.214,0v3.734a.607.607,0,0,0,.607.607h2.854a.607.607,0,1,0,0-1.214Z" transform="translate(-47.888 -40.32)" fill="#fff"/></g></g></g></svg>