<svg xmlns="http://www.w3.org/2000/svg" width="46.353" height="25.617" viewBox="0 0 46.353 25.617">
  <path id="Caminho_2460" data-name="Caminho 2460" d="M-1024.683,273.032l-.946-2.128h.245a.773.773,0,0,0,.774-.772.772.772,0,0,0-.067-.315h-.006l-9.27-20.855a.772.772,0,0,0-.706-.46h-26.26a.772.772,0,0,0-.706.46l-9.271,20.855a.772.772,0,0,0,.39,1.02.772.772,0,0,0,.316.067h.24l-.946,2.128a.772.772,0,0,0,.39,1.02.771.771,0,0,0,.316.067h44.806a.773.773,0,0,0,.774-.772.772.772,0,0,0-.067-.315Zm-1.888-3.671h-12.821l-1.029-6.952h10.762Zm-3.773-8.5h-10.313l-.911-6.176h8.476Zm-10.61,8.5-14.4,0,1.289-6.956h12.082Zm5.793-19.316,1.373,3.088h-8.014l-.458-3.088Zm-16.621,0h7.959l.458,3.088h-8.99Zm8.647,4.632.915,6.176h-11.564l1.145-6.176Zm-17.281-4.621h7.065l-.564,3.088h-7.877Zm-2.059,4.632h8.263l-1.145,6.176h-9.869Zm-3.439,7.725h10.274l-1.283,6.952H-1069Zm26.52,10.167-1.562,0-14.4,0H-1069l.743-1.672h40.944l.743,1.672Z" transform="translate(1070.963 -248.502)" fill="#fff"/>
</svg>
