<svg xmlns="http://www.w3.org/2000/svg" width="41.835" height="33" viewBox="0 0 41.835 33">
  <g id="Grupo_1826" data-name="Grupo 1826" transform="translate(-299.738 -370.16)">
    <path id="Caminho_1746" data-name="Caminho 1746" d="M336.584,370.16H304.727a5,5,0,0,0-4.989,4.99v12.072a5,5,0,0,0,4.989,4.99h31.856a5,5,0,0,0,4.989-4.99V375.15A5,5,0,0,0,336.584,370.16Zm-3.732,20.288H308.46V389.7a3.187,3.187,0,0,1,3.183-3.183h18.024a3.187,3.187,0,0,1,3.183,3.183Zm6.958-3.226a3.23,3.23,0,0,1-3.226,3.226h-1.968V389.7a4.953,4.953,0,0,0-4.947-4.948H311.643A4.953,4.953,0,0,0,306.7,389.7v.753h-1.968a3.23,3.23,0,0,1-3.226-3.226V375.15a3.23,3.23,0,0,1,3.226-3.225h31.856a3.23,3.23,0,0,1,3.226,3.225Z" transform="translate(0 0)" fill="#fff"/>
    <path id="Caminho_1747" data-name="Caminho 1747" d="M332.661,408.658a.883.883,0,0,0-.882.882V416.7a.882.882,0,1,0,1.764,0V409.54A.883.883,0,0,0,332.661,408.658Z" transform="translate(-12.006 -14.425)" fill="#fff"/>
    <path id="Caminho_1748" data-name="Caminho 1748" d="M342.3,415.821a2.5,2.5,0,0,1-2.492-2.492V409.54a.882.882,0,1,0-1.764,0v3.788a4.261,4.261,0,0,0,4.256,4.256.882.882,0,0,0,0-1.764Z" transform="translate(-14.354 -14.425)" fill="#fff"/>
    <path id="Caminho_1749" data-name="Caminho 1749" d="M324.372,408.658a.883.883,0,0,0-.882.882v3.788A2.5,2.5,0,0,1,321,415.821a.882.882,0,0,0,0,1.764,4.261,4.261,0,0,0,4.256-4.256V409.54A.883.883,0,0,0,324.372,408.658Z" transform="translate(-7.636 -14.425)" fill="#fff"/>
    <path id="Caminho_1750" data-name="Caminho 1750" d="M350.821,387.208h-1.563a.851.851,0,0,0,0,1.7h1.563a.851.851,0,1,0,0-1.7Z" transform="translate(-18.236 -6.388)" fill="#fff"/>
    <path id="Caminho_1751" data-name="Caminho 1751" d="M341.41,387.208h-1.564a.851.851,0,0,0,0,1.7h1.564a.851.851,0,0,0,0-1.7Z" transform="translate(-14.71 -6.388)" fill="#fff"/>
  </g>
</svg>
