<svg id="Icone_pin" xmlns="http://www.w3.org/2000/svg" width="14" height="18" viewBox="0 0 14 18">
  <path id="Caminho_445" data-name="Caminho 445" d="M-57.209,74.086a6.937,6.937,0,0,0-7,6.855c0,2.758,2.037,5.271,3.673,7.289l2.954,3.677a.571.571,0,0,0,.394.18h.024a.448.448,0,0,0,.328-.18c.316-.394.633-.8.953-1.208.652-.833,1.324-1.695,2.006-2.473,1.634-2.018,3.667-4.529,3.667-7.283A6.937,6.937,0,0,0-57.209,74.086Zm6.046,6.855c0,2.43-1.916,4.8-3.455,6.7l-.005.007c-.554.728-1.155,1.463-1.736,2.173-.286.349-.57.7-.85,1.045l-2.585-3.215c-1.542-1.9-3.461-4.275-3.461-6.708a5.991,5.991,0,0,1,6.046-5.92A5.991,5.991,0,0,1-51.163,80.941Z" transform="translate(64.209 -74.086)" fill="#fff"/>
  <path id="Caminho_446" data-name="Caminho 446" d="M-57.209,77.5A3.544,3.544,0,0,0-60.794,81a3.544,3.544,0,0,0,3.585,3.493A3.544,3.544,0,0,0-53.624,81,3.544,3.544,0,0,0-57.209,77.5ZM-54.591,81a2.588,2.588,0,0,1-2.618,2.551A2.589,2.589,0,0,1-59.828,81a2.589,2.589,0,0,1,2.619-2.552A2.589,2.589,0,0,1-54.591,81Z" transform="translate(64.209 -74.13)" fill="#fff"/>
</svg>
