<svg xmlns="http://www.w3.org/2000/svg" width="18" height="18.005" viewBox="0 0 18 18.005">
  <path id="Caminho_444" data-name="Caminho 444" d="M-80.757,105.679H-83.7c-.017,0-.032,0-.049,0h-1.423a.221.221,0,0,0-.025,0h-6.221a3.669,3.669,0,0,0-3.669,3.669V120.01a3.669,3.669,0,0,0,3.669,3.669h10.662a3.669,3.669,0,0,0,3.669-3.669V109.348A3.669,3.669,0,0,0-80.757,105.679Zm2.811,14.331a2.811,2.811,0,0,1-2.811,2.811l-7.4.018a1.356,1.356,0,0,0,.117-.548v-3.7a.4.4,0,0,0-.4-.4.4.4,0,0,0-.4.4v3.7a.566.566,0,0,1-.469.551l-2.113,0a2.812,2.812,0,0,1-2.811-2.811v-8.043a1.375,1.375,0,0,0,.545.111h3.7a.424.424,0,0,0,.425-.424.425.425,0,0,0-.425-.425h-3.7a.544.544,0,0,1-.543-.544v-1.388a2.809,2.809,0,0,1,2.808-2.787h7.731a.537.537,0,0,1,.482.53V112.8a.544.544,0,0,1-.543.544h-1.423a.425.425,0,0,0-.426.425.425.425,0,0,0,.426.424h1.423a1.4,1.4,0,0,0,1.394-1.393v-5.731a1.373,1.373,0,0,0-.106-.53h1.7a2.81,2.81,0,0,1,2.811,2.811l.009,2.332Z" transform="translate(95.088 -105.674)" fill="#fff"/>
</svg>
