<svg xmlns="http://www.w3.org/2000/svg" width="36.542" height="36.599" viewBox="0 0 36.542 36.599">
  <g id="Grupo_1914" data-name="Grupo 1914" transform="translate(1143.301 -695.178)">
    <path id="Caminho_2461" data-name="Caminho 2461" d="M-1114.068,731.425h-28.153a.8.8,0,0,0-.8.8.8.8,0,0,0,.8.8h28.153a2.258,2.258,0,0,1,2.256,2.256v28.282a.8.8,0,0,0,.8.8.8.8,0,0,0,.8-.8V735.29A3.87,3.87,0,0,0-1114.068,731.425Z" transform="translate(-0.247 -32.6)" fill="#fff"/>
    <path id="Caminho_2462" data-name="Caminho 2462" d="M-1114.222,695.178h-28a.8.8,0,0,0-.8.8.805.805,0,0,0,.8.8h28a6.108,6.108,0,0,1,6.1,6.1v28.084a.8.8,0,0,0,.8.8.8.8,0,0,0,.8-.8V702.889A7.719,7.719,0,0,0-1114.222,695.178Z" transform="translate(-0.247)" fill="#fff"/>
    <path id="Caminho_2463" data-name="Caminho 2463" d="M-1114.9,767.706H-1142.5a.8.8,0,0,0-.8.8V796.1a.8.8,0,0,0,.8.8h27.592a.8.8,0,0,0,.8-.8V768.511A.8.8,0,0,0-1114.9,767.706Zm-26.787,10.807h7.587V786.1h-7.587Zm9.2,0h7.587V786.1h-7.587Zm9.2,0h7.588V786.1h-7.588Zm7.588-1.61h-7.588v-7.588h7.588Zm-9.2,0h-7.587v-7.588h7.587Zm-9.2-7.588V776.9h-7.587v-7.588Zm-7.587,18.394h7.587V795.3h-7.587Zm9.2,0h7.587V795.3h-7.587Zm9.2,0h7.588V795.3h-7.588Z" transform="translate(0 -65.231)" fill="#fff"/>
  </g>
</svg>
