<svg xmlns="http://www.w3.org/2000/svg" width="42.368" height="42.433" viewBox="0 0 42.368 42.433">
  <g id="Grupo_1913" data-name="Grupo 1913" transform="translate(461 -158.197)">
    <path id="Caminho_2458" data-name="Caminho 2458" d="M-419.222,200.63H-461v-4.392c.363-.78,1.112-.525,1.715-.592v-9.931c-.64-.024-1.35.171-1.715-.582v-.5c.363-.779,1.111-.526,1.737-.594V183.5q0-12.087-.009-24.174a1.127,1.127,0,0,1,.588-1.125h21.178a1.131,1.131,0,0,1,.588,1.127q-.018,12.1-.008,24.2v.51h2.621a5.637,5.637,0,0,1-.729-2.595c-.011-1.519-.019-3.039,0-4.558a3.878,3.878,0,0,1,1.212-2.771c.232-.231.5-.428.749-.638a9.663,9.663,0,0,1-.133-3.38,3.946,3.946,0,0,1,3.861-3.469,3.936,3.936,0,0,1,4,3.26,9.642,9.642,0,0,1-.053,3.377.437.437,0,0,0,.109.344c.207.2.446.362.695.557a6.562,6.562,0,0,1,.611-.4.7.7,0,0,0,.39-.73c-.021-1.561-.007-3.122-.01-4.682a2.492,2.492,0,0,1,.594-1.679,2.473,2.473,0,0,1,2.74-.729,2.465,2.465,0,0,1,1.625,2.283c.014,2.058-.022,4.116.016,6.174a2.923,2.923,0,0,1-1.334,2.63c-1.362.963-2.679,1.989-4.027,2.973a.664.664,0,0,0-.3.617c.014,1.008,0,2.017.007,3.025,0,.132.015.263.024.417h.323c1.448,0,2.9,0,4.343,0a.846.846,0,0,1,.952.812c.009.5-.372.837-.964.844-.244,0-.489,0-.745,0v9.945c.258,0,.49,0,.722,0,.683.006.986.3.988.986,0,.953-.021,1.907.01,2.859A1.109,1.109,0,0,1-419.222,200.63Zm-36.731-16.591V183.5q0-10.38,0-20.76c0-.138-.006-.277,0-.414a.8.8,0,0,1,.786-.805q1.7-.026,3.391,0a.8.8,0,0,1,.78.811.83.83,0,0,1-.764.83c-.15.015-.3.007-.455.007h-2.058v20.851h3.281v-.53q0-7.977,0-15.953c0-.764.286-1.051,1.047-1.052q1.82,0,3.64,0c.843,0,1.1.264,1.1,1.121q0,7.977,0,15.953v.474h3.283V163.17c-.782,0-1.538,0-2.294,0-.6,0-.98-.319-.985-.821s.374-.832.971-.834c.938,0,1.875,0,2.813,0s1.177.238,1.177,1.172q0,10.442,0,20.884v.462h1.625V159.875h-18.973v24.164ZM-426.3,174.9a4.049,4.049,0,0,1-2.979,1.3,4.067,4.067,0,0,1-2.936-1.277A2.424,2.424,0,0,0-433.383,177q-.016,2.175,0,4.35a4,4,0,0,0,.881,2.406.691.691,0,0,0,.619.312c1.847-.015,3.694-.007,5.541-.009.119,0,.238-.015.394-.025v-.473c0-1.132.024-2.265-.01-3.4a1.31,1.31,0,0,1,.636-1.244c.617-.414,1.2-.879,1.8-1.324.193-.144.382-.294.581-.448l-1.024-1.376c-.89.545-1.059.508-1.722-.284A7.2,7.2,0,0,0-426.3,174.9Zm5.979,22.438h-38.995v1.609h38.995Zm-26.565-13.307v-15.86h-2.431v15.86Zm19.94-12.591h.024c0-.3.009-.608,0-.911a2.333,2.333,0,0,0-2.173-2.25,2.265,2.265,0,0,0-2.458,1.961,10.5,10.5,0,0,0-.012,2.268,2.261,2.261,0,0,0,2.28,2.032,2.311,2.311,0,0,0,2.333-1.985A7.518,7.518,0,0,0-426.942,171.445Zm-28.214,24.195v-9.907h-2.43v9.907Zm1.713-9.909v9.893h2.43V185.73Zm6.559,9.909v-9.908h-2.43v9.908Zm1.692-.017h2.446v-9.878h-2.446Zm4.157-9.891v9.893h2.432v-9.893Zm6.561,9.907v-9.893h-2.433v9.893Zm1.712-9.908v9.907h2.43V185.73Zm4.136,0v9.893h2.431v-9.893Zm6.571.011h-2.432v9.893h2.432Zm.447-9.58c.274-.2.5-.388.74-.541a1.2,1.2,0,0,0,.576-1.146c-.02-2-.008-4-.009-6,0-.649-.3-1.018-.815-1.024s-.838.369-.839,1.041c0,1.641-.015,3.282.008,4.922.008.586-.044,1.1-.67,1.385Z" fill="#fff"/>
    <path id="Caminho_2459" data-name="Caminho 2459" d="M-350.868,189.874a.834.834,0,0,1-.806-.864.834.834,0,0,1,.841-.787.834.834,0,0,1,.806.864A.836.836,0,0,1-350.868,189.874Z" transform="translate(-97.244 -26.707)" fill="#fff"/>
  </g>
</svg>
