<svg xmlns="http://www.w3.org/2000/svg" width="20" height="45.105" viewBox="0 0 20 45.105">
  <g id="Layer_2" data-name="Layer 2" transform="translate(0 -3)">
    <g id="Layer_1" data-name="Layer 1" transform="translate(0 3)">
      <path id="Caminho_2399" data-name="Caminho 2399" d="M19.192,9.551H17.845V.795A.8.8,0,0,0,17.063,0H2.919a.8.8,0,0,0-.795.795V9.551H.777A.8.8,0,0,0,0,10.328V24.746a10,10,0,0,0,5.258,8.8l.049.022v4.6a.8.8,0,0,0,.795.795H7.449v5.348a.8.8,0,0,0,.795.795h3.52a.8.8,0,0,0,.808-.795V38.976H13.92a.8.8,0,0,0,.759-.808v-4.6l.049-.027a10,10,0,0,0,5.258-8.8V22.281a.795.795,0,1,0-1.59,0v2.461a8.406,8.406,0,1,1-16.807,0v-13.6H18.41v3.188a.795.795,0,0,0,1.59,0v-4A.8.8,0,0,0,19.192,9.551ZM10.97,43.52H9.021V38.976H10.97ZM6.9,34.252l.117.036a9.879,9.879,0,0,0,2.977.449h0a9.973,9.973,0,0,0,2.91-.449v-.027h.121v.09H13.1v3.022H6.9ZM9.21,9.555h-5.5V1.59h5.5Zm7.068,0H10.8V1.59h5.478Z" transform="translate(0 0)" fill="#fff"/>
      <path id="Caminho_2400" data-name="Caminho 2400" d="M29.2,12.232A.777.777,0,0,0,29.76,12a.786.786,0,0,0,.234-.561.783.783,0,1,0-.786.786Z" transform="translate(-15.66 -5.869)" fill="#fff"/>
      <path id="Caminho_2401" data-name="Caminho 2401" d="M13.445,12.212a.777.777,0,0,0,.561-.233.786.786,0,0,0,.233-.561.791.791,0,1,0-.795.795Z" transform="translate(-6.97 -5.85)" fill="#fff"/>
      <path id="Caminho_2402" data-name="Caminho 2402" d="M18.929,44.823a.79.79,0,0,0,.727-.476l1.913-4.333a.79.79,0,0,0-.727-1.114H18.219l1.432-3.22a.8.8,0,0,0-1.455-.642l-1.922,4.333a.777.777,0,0,0,.058.777.786.786,0,0,0,.665.364h2.631l-1.423,3.215a.8.8,0,0,0,.391,1.042h.022a.777.777,0,0,0,.31.054Z" transform="translate(-8.924 -19.043)" fill="#fff"/>
      <path id="Caminho_2403" data-name="Caminho 2403" d="M41.712,39a.777.777,0,0,0-.561.233A.788.788,0,1,0,41.717,39Z" transform="translate(-22.521 -21.488)" fill="#fff"/>
    </g>
  </g>
</svg>
