<svg xmlns="http://www.w3.org/2000/svg" width="42.76" height="41.597" viewBox="0 0 42.76 41.597">
  <g id="Layer_2" data-name="Layer 2" transform="translate(0 3)">
    <g id="Layer_1" data-name="Layer 1" transform="translate(0 -3)">
      <path id="Caminho_2393" data-name="Caminho 2393" d="M42.439,54.85a.833.833,0,0,0-.577.237l-.281.276-7.9,7.94a.815.815,0,0,0,.572,1.395h0a.8.8,0,0,0,.582-.241l8.181-8.181a.818.818,0,0,0,.241-.582.794.794,0,0,0-.237-.582.818.818,0,0,0-.582-.261Z" transform="translate(-16.959 -27.817)" fill="#fff"/>
      <path id="Caminho_2394" data-name="Caminho 2394" d="M28.041,55.678a.8.8,0,0,0-.246-.6l-.035-.035a.808.808,0,0,0-.542-.207.8.8,0,0,0-.577.241L21.22,60.5a.808.808,0,0,0-.222.606.818.818,0,0,0,.808.8h0a.8.8,0,0,0,.567-.237l5.421-5.421A.789.789,0,0,0,28.041,55.678Z" transform="translate(-10.649 -27.812)" fill="#fff"/>
      <path id="Caminho_2395" data-name="Caminho 2395" d="M41.961,0H.813A.813.813,0,0,0,0,.813V6a.818.818,0,0,0,.813.808h1.71V40.778a.818.818,0,0,0,.813.818H39.428a.818.818,0,0,0,.813-.818V6.806h1.7a.813.813,0,0,0,.818-.813V.813a.813.813,0,0,0-.8-.813Zm-9.5,17.541v3.7H4.145v-3.7ZM4.145,15.914v-3.7H32.464v3.7ZM33.272,27.56a1.134,1.134,0,1,1-.806.332,1.138,1.138,0,0,1,.806-.332Zm-.808-16.979H4.13V6.806H32.464ZM4.145,39.965V22.873H32.464v3.139a2.809,2.809,0,1,0,1.631,0V22.873h4.519V39.965ZM34.091,21.237v-3.7h4.515l.03,3.7Zm0-5.328v-3.7h4.515l.03,3.7Zm0-5.333V6.806h4.515l.03,3.775ZM1.631,5.155V1.631H41.148V5.18Z" transform="translate(0 0)" fill="#fff"/>
    </g>
  </g>
</svg>
