<svg id="icone_galeria" xmlns="http://www.w3.org/2000/svg" width="18" height="18" viewBox="0 0 18 18">
  <path id="Caminho_442" data-name="Caminho 442" d="M19.831,5.5H9.169A3.669,3.669,0,0,0,5.5,9.169V19.831A3.669,3.669,0,0,0,9.169,23.5H19.831A3.669,3.669,0,0,0,23.5,19.831V9.169A3.669,3.669,0,0,0,19.831,5.5Zm2.811,14.331a2.811,2.811,0,0,1-2.811,2.811H11.509A11.589,11.589,0,0,1,22.651,11.5Zm0-9.163a12.411,12.411,0,0,0-12,12H9.169a2.811,2.811,0,0,1-2.811-2.837V9.169A2.811,2.811,0,0,1,9.169,6.357H19.831a2.811,2.811,0,0,1,2.811,2.811Z" transform="translate(-5.5 -5.5)" fill="#fff"/>
  <path id="Caminho_443" data-name="Caminho 443" d="M11,8.5A2.5,2.5,0,1,0,13.5,11,2.5,2.5,0,0,0,11,8.5Zm0,4A1.5,1.5,0,1,1,12.5,11,1.5,1.5,0,0,1,11,12.5Z" transform="translate(-5.7 -5.7)" fill="#fff"/>
</svg>
