<svg xmlns="http://www.w3.org/2000/svg" width="16.986" height="10.017" viewBox="0 0 16.986 10.017"><path d="M1223.749,43.014c-.406,0-.735-.452-.735-1.008s.329-1.009.735-1.009h15.514c.406,0,.736.452.736,1.009s-.33,1.008-.736,1.008Zm0-4c-.406,0-.735-.453-.735-1.008s.329-1.009.735-1.009h15.514c.406,0,.736.452.736,1.009s-.33,1.008-.736,1.008Zm0-4c-.406,0-.735-.453-.735-1.009s.329-1.009.735-1.009h15.514c.406,0,.736.452.736,1.009s-.33,1.009-.736,1.009Z" transform="translate(-1223.014 -32.997)" fill="#d3d3d3"/></svg>