<svg xmlns="http://www.w3.org/2000/svg" width="25.658" height="23.118" viewBox="0 0 25.658 23.118"><path d="M14.449,25.216c-4.9,0-9.964,3.259-10.908,8.1-.286,1.47-.182,3.713-.725,4.867-.673,1.429-2.026.2-2.7,1.558a1.345,1.345,0,0,0,.129,1.409,10.433,10.433,0,0,0,5.1,3.638,2.7,2.7,0,1,0,5.258.927c.955.057,1.927.074,2.906.074.332,0,.657,0,.976-.015a2.592,2.592,0,0,0,2.9,2.549,2.7,2.7,0,0,0,2.293-3.639,10.9,10.9,0,0,0,2.854-2.02C29.35,36.127,24.13,25.216,14.449,25.216ZM8.029,47.036a1.408,1.408,0,1,1,1.283-1.524A1.408,1.408,0,0,1,8.029,47.036Zm9.262,0a1.408,1.408,0,1,1,1.283-1.524A1.408,1.408,0,0,1,17.291,47.036Zm1.592-3.479a2.686,2.686,0,0,0-1.953-.611,2.526,2.526,0,0,0-2.2,1.475c-.428.017-.839.02-1.217.02-1.069,0-2.154-.014-3.228-.087A2.7,2.7,0,0,0,6.1,43.633a9.307,9.307,0,0,1-4.782-3.3c3.8,0,3.051-4.249,3.544-6.768.815-4.174,5.314-7.008,9.589-7.008,6.058,0,11.449,5.408,9.363,11.75A9.342,9.342,0,0,1,18.883,43.557Z" transform="translate(0.027 -25.216)" fill="#fff"/><path d="M193.527,162.581a1.291,1.291,0,1,0-1.292-1.291A1.29,1.29,0,0,0,193.527,162.581Z" transform="translate(-182.607 -153.25)" fill="#fff"/><circle cx="1.291" cy="1.291" r="1.291" transform="translate(15.794 6.548)" fill="#fff"/><path d="M196.877,239.148a3.317,3.317,0,0,1-3.3,2.2c-1.439.038-3.151-.918-3.315-2.349a.672.672,0,0,0-1.335.154,4.455,4.455,0,0,0,4.552,3.542,4.668,4.668,0,0,0,4.7-3.242A.672.672,0,0,0,196.877,239.148Z" transform="translate(-179.463 -227.736)" fill="#fff"/></svg>