<svg id="Grupo_345" data-name="Grupo 345" xmlns="http://www.w3.org/2000/svg" width="20" height="20" viewBox="0 0 20 20">
  <path id="WhatsApp" d="M30,19.743a9.835,9.835,0,0,1-14.565,8.531L10,30l1.771-5.227a9.639,9.639,0,0,1-1.408-5.031,9.819,9.819,0,0,1,19.637,0Zm-9.818-8.192a8.233,8.233,0,0,0-8.255,8.192,8.092,8.092,0,0,0,1.573,4.8l-1.031,3.043,3.171-1.008a8.213,8.213,0,1,0,4.541-15.029Zm4.957,10.435c-.061-.1-.22-.159-.461-.28s-1.424-.7-1.645-.776-.382-.12-.541.118-.622.776-.761.937-.282.18-.522.061a6.532,6.532,0,0,1-1.935-1.186,7.247,7.247,0,0,1-1.339-1.653c-.141-.239-.014-.367.106-.488s.241-.28.361-.418a1.594,1.594,0,0,0,.241-.4.43.43,0,0,0-.02-.418c-.059-.118-.541-1.294-.743-1.773s-.4-.4-.541-.4-.3-.02-.461-.02a.89.89,0,0,0-.643.3,2.668,2.668,0,0,0-.843,1.992,4.622,4.622,0,0,0,.982,2.469,9.839,9.839,0,0,0,4.11,3.6c2.447.955,2.447.637,2.888.6A2.435,2.435,0,0,0,25,23.12,1.947,1.947,0,0,0,25.139,21.986Z" transform="translate(-10 -10)" fill="#fff"/>
</svg>
